<svg width="16" height="16" viewBox="0 0 16 16" fill="none" xmlns="http://www.w3.org/2000/svg">
<path d="M8.0038 3.95708C5.73238 3.95708 3.90023 5.76059 3.90023 7.99653C3.90023 10.2325 5.73238 12.036 8.0038 12.036C10.2752 12.036 12.1074 10.2325 12.1074 7.99653C12.1074 5.76059 10.2752 3.95708 8.0038 3.95708ZM8.0038 10.6227C6.53595 10.6227 5.33595 9.44497 5.33595 7.99653C5.33595 6.54809 6.53238 5.37036 8.0038 5.37036C9.47523 5.37036 10.6717 6.54809 10.6717 7.99653C10.6717 9.44497 9.47166 10.6227 8.0038 10.6227ZM13.2324 3.79184C13.2324 4.31567 12.8038 4.73403 12.2752 4.73403C11.7431 4.73403 11.3181 4.31216 11.3181 3.79184C11.3181 3.27153 11.7467 2.84966 12.2752 2.84966C12.8038 2.84966 13.2324 3.27153 13.2324 3.79184ZM15.9502 4.74809C15.8895 3.48598 15.5967 2.36802 14.6574 1.44692C13.7217 0.52583 12.5859 0.237549 11.3038 0.174268C9.98237 0.100439 6.02166 0.100439 4.70023 0.174268C3.42166 0.234033 2.28595 0.522314 1.34666 1.44341C0.40738 2.3645 0.118094 3.48247 0.0538086 4.74458C-0.0211914 6.04536 -0.0211914 9.94418 0.0538086 11.245C0.114523 12.5071 0.40738 13.625 1.34666 14.5461C2.28595 15.4672 3.41809 15.7555 4.70023 15.8188C6.02166 15.8926 9.98237 15.8926 11.3038 15.8188C12.5859 15.759 13.7217 15.4707 14.6574 14.5461C15.5931 13.625 15.8859 12.5071 15.9502 11.245C16.0252 9.94418 16.0252 6.04887 15.9502 4.74809ZM14.2431 12.6407C13.9645 13.3297 13.4252 13.8606 12.7217 14.1383C11.6681 14.5497 9.16809 14.4547 8.0038 14.4547C6.83952 14.4547 4.33595 14.5461 3.28595 14.1383C2.58595 13.8641 2.04666 13.3332 1.76452 12.6407C1.34666 11.6036 1.44309 9.14262 1.44309 7.99653C1.44309 6.85044 1.35024 4.38598 1.76452 3.35239C2.04309 2.66333 2.58238 2.13247 3.28595 1.85474C4.33952 1.44341 6.83952 1.53833 8.0038 1.53833C9.16809 1.53833 11.6717 1.44692 12.7217 1.85474C13.4217 2.12895 13.9609 2.65981 14.2431 3.35239C14.6609 4.3895 14.5645 6.85044 14.5645 7.99653C14.5645 9.14262 14.6609 11.6071 14.2431 12.6407Z" fill="#FEFEFE"/>
</svg>
